<?xml version="1.0"?>
<svg xmlns="http://www.w3.org/2000/svg" viewBox="0 0 16 16">
    <path style="line-height:normal;text-indent:0;text-align:start;text-decoration-line:none;text-decoration-style:solid;text-decoration-color:#000;text-transform:none;block-progression:tb;isolation:auto;mix-blend-mode:normal" d="M 6.5 1 C 5.6774686 1 5 1.6774686 5 2.5 L 5 4 L 2.5 4 C 1.6774686 4 1 4.6774686 1 5.5 L 1 12.5 C 1 13.322531 1.6774686 14 2.5 14 L 8.5 14 C 9.3225314 14 10 13.322531 10 12.5 L 10 11 L 12.5 11 C 13.322531 11 14 10.322531 14 9.5 L 14 4.2929688 L 10.707031 1 L 6.5 1 z M 6.5 2 L 10 2 L 10 5 L 13 5 L 13 9.5 C 13 9.7814686 12.781469 10 12.5 10 L 10 10 L 10 7.2929688 L 6.7070312 4 L 6 4 L 6 2.5 C 6 2.2185314 6.2185314 2 6.5 2 z M 11 2.7070312 L 12.292969 4 L 11 4 L 11 2.7070312 z M 2.5 5 L 6 5 L 6 8 L 9 8 L 9 12.5 C 9 12.781469 8.7814686 13 8.5 13 L 2.5 13 C 2.2185314 13 2 12.781469 2 12.5 L 2 5.5 C 2 5.2185314 2.2185314 5 2.5 5 z M 7 5.7070312 L 8.2929688 7 L 7 7 L 7 5.7070312 z" font-weight="400" font-family="sans-serif" white-space="normal" overflow="visible" fill="#808080"/>
</svg>
