<?xml version="1.0"?>
<svg xmlns="http://www.w3.org/2000/svg" viewBox="0 0 16 16">
    <path style="line-height:normal;text-indent:0;text-align:start;text-decoration-line:none;text-decoration-style:solid;text-decoration-color:#000;text-transform:none;block-progression:tb;isolation:auto;mix-blend-mode:normal" d="M 2.5 2 C 1.6774686 2 1 2.6774686 1 3.5 L 1 4.5 L 1 11.5 C 1 12.322531 1.6774686 13 2.5 13 L 4 13 L 4 14 L 6 14 L 6 13 L 10 13 L 10 14 L 12 14 L 12 13 L 13.5 13 C 14.322531 13 15 12.322531 15 11.5 L 15 3.5 C 15 2.6774686 14.322531 2 13.5 2 L 2.5 2 z M 2.5 3 L 13.5 3 C 13.781469 3 14 3.2185314 14 3.5 L 14 11.5 C 14 11.781469 13.781469 12 13.5 12 L 2.5 12 C 2.2185314 12 2 11.781469 2 11.5 L 2 4.5 L 2 3.5 C 2 3.2185314 2.2185314 3 2.5 3 z M 5.5 5 C 4.6774952 5 4 5.6774952 4 6.5 C 4 6.9819011 4.2357134 7.4102957 4.59375 7.6855469 C 3.6646486 8.0510832 3 8.9530059 3 10.007812 L 4 10.007812 C 4 9.1727984 4.6649849 8.5078125 5.5 8.5078125 C 6.3350151 8.5078125 7 9.1727984 7 10.007812 L 8 10.007812 C 8 8.9530059 7.3353514 8.0510832 6.40625 7.6855469 C 6.7642866 7.4102957 7 6.9819011 7 6.5 C 7 5.6774952 6.3225048 5 5.5 5 z M 5.5 6 C 5.7820647 6 6 6.2179353 6 6.5 C 6 6.7820647 5.7820647 7 5.5 7 C 5.2179353 7 5 6.7820647 5 6.5 C 5 6.2179353 5.2179353 6 5.5 6 z M 9 6 L 9 7 L 13 7 L 13 6 L 9 6 z M 9 8 L 9 9 L 13 9 L 13 8 L 9 8 z" fill="#808080"/>
</svg>
