<svg height="496pt" viewBox="0 -64 496 496" width="496pt" xmlns="http://www.w3.org/2000/svg" fill="#2EE59D"><path d="m456 0h-416c-22.054688 0-40 17.945312-40 40v240c0 22.054688 17.945312 40 40 40h104v32h-32v16h272v-16h-32v-32h104c22.054688 0 40-17.945312 40-40v-240c0-22.054688-17.945312-40-40-40zm-416 16h416c13.230469 0 24 10.769531 24 24v216h-464v-216c0-13.230469 10.769531-24 24-24zm296 336h-176v-32h176zm120-48h-416c-13.230469 0-24-10.769531-24-24v-8h464v8c0 13.230469-10.769531 24-24 24zm0 0"/><path d="m176 208c26.472656 0 48-21.527344 48-48h-16c0 17.648438-14.351562 32-32 32s-32-14.351562-32-32v-48c0-17.648438 14.351562-32 32-32s32 14.351562 32 32h16c0-26.472656-21.527344-48-48-48s-48 21.527344-48 48v48c0 26.472656 21.527344 48 48 48zm0 0"/><path d="m264.0625 199.007812 15.875 1.984376 4.125-32.992188h39.882812l-3.875 31.007812 15.875 1.984376 4.117188-32.992188h19.9375v-16h-17.9375l4-32h13.9375v-16h-11.9375l3.875-31.007812-15.875-1.984376-4.125 32.992188h-39.882812l3.875-31.007812-15.875-1.984376-4.117188 32.992188h-19.9375v16h17.9375l-4 32h-13.9375v16h11.9375zm26-79.007812h39.882812l-4 32h-39.882812zm0 0"/></svg>